<svg xmlns="http://www.w3.org/2000/svg" width="256" height="256" viewBox="0 0 256 256" version="1.1"><path d="M 42.450 41.407 C 40.773 42.137, 38.186 44.179, 36.700 45.944 C 31.766 51.808, 33.930 61.844, 40.906 65.451 C 42.618 66.337, 46.431 67, 49.808 67 L 55.716 67 57.963 75.750 C 59.199 80.563, 61.349 88.550, 62.739 93.500 C 64.130 98.450, 66.295 106.550, 67.550 111.500 C 68.806 116.450, 70.803 123.875, 71.988 128 C 73.174 132.125, 74.543 137.300, 75.032 139.500 C 75.521 141.700, 77.277 148.182, 78.934 153.905 C 81.424 162.504, 82.516 164.797, 85.223 167.114 L 88.500 169.919 135.673 169.959 L 182.847 170 185.995 167.351 C 188.269 165.437, 193.846 155.300, 206.072 130.856 C 221.883 99.245, 223 96.645, 223 91.456 C 223 82.959, 217.962 75.125, 209.790 70.912 C 206.255 69.090, 203.180 69, 144.540 69 C 110.693 69, 83 68.793, 83 68.540 C 83 68.287, 81.837 63.450, 80.416 57.790 C 77.538 46.328, 75.062 42.667, 69.057 40.999 C 63.844 39.551, 46.086 39.823, 42.450 41.407 M 78.845 185.619 C 73.624 189.967, 73.295 190.431, 71.929 195.370 C 70.150 201.801, 72.192 207.901, 77.652 212.465 C 85.308 218.865, 92.749 219.029, 99.747 212.954 C 109.069 204.863, 109.177 195.180, 100.041 186.635 C 95.296 182.197, 94.833 182, 89.137 182 C 83.769 182, 82.766 182.353, 78.845 185.619 M 173.922 184.274 C 164.376 190.707, 162.491 202.487, 169.646 210.991 C 173.211 215.228, 177.497 217.231, 183 217.231 C 188.319 217.231, 192.349 215.422, 196.128 211.339 C 199.969 207.189, 201 204.684, 201 199.500 C 201 194.316, 199.969 191.811, 196.128 187.661 C 192.258 183.479, 188.748 182, 182.698 182 C 178.735 182, 176.397 182.606, 173.922 184.274" stroke="none" fill="#fffcec" fill-rule="evenodd"/><path d="" stroke="none" fill="#fcfcec" fill-rule="evenodd"/></svg>