<svg xmlns="http://www.w3.org/2000/svg" width="600" height="600" viewBox="0 0 600 600" version="1.1"><path d="M 217.500 50.049 C 181.864 50.802, 166.469 51.962, 151.500 55.023 C 122.158 61.022, 100.620 72.301, 80.960 91.960 C 57.636 115.284, 45.603 142.294, 41.070 181.500 C 38.839 200.793, 37.599 298.148, 38.845 356.250 C 40.059 412.922, 40.647 422.200, 44.115 439.500 C 48.187 459.810, 56.995 480.805, 67.190 494.500 C 73.898 503.511, 87.577 517.176, 96.500 523.780 C 115.157 537.588, 140.576 546.424, 172.500 550.199 C 188.349 552.073, 391.651 552.073, 407.500 550.199 C 439.394 546.427, 465.113 537.497, 483.500 523.810 C 492.467 517.135, 506.135 503.467, 512.810 494.500 C 523.005 480.805, 531.813 459.810, 535.885 439.500 C 539.353 422.200, 539.941 412.922, 541.155 356.250 C 542.401 298.148, 541.161 200.793, 538.930 181.500 C 534.397 142.294, 522.364 115.284, 499.040 91.960 C 475.416 68.336, 447.962 56.220, 408.500 52 C 385.058 49.493, 289.889 48.522, 217.500 50.049 M 190.420 99.023 C 165.090 100.484, 146.976 104.910, 132 113.299 C 122.950 118.368, 108.116 132.745, 103.083 141.324 C 96.115 153.202, 91.543 168.562, 88.893 189 C 87.305 201.244, 86.498 367.917, 87.899 394.137 C 89.450 423.146, 91.939 436.568, 98.534 451.480 C 106.402 469.272, 121.694 484.598, 139.361 492.400 C 163.642 503.122, 182.527 504.400, 306.203 503.692 C 406.067 503.120, 413.915 502.566, 435.176 494.589 C 446.668 490.277, 453.720 485.929, 462.600 477.679 C 479.007 462.434, 487.803 442.356, 491.153 412.500 C 493.061 395.497, 493.105 205.632, 491.204 189.500 C 487.726 159.980, 479.341 140.298, 463.870 125.343 C 449.286 111.245, 430.767 103.453, 403.500 99.942 C 392.675 98.548, 212.155 97.769, 190.420 99.023 M 412.577 137.650 C 408.934 138.769, 406.052 140.767, 401.498 145.331 C 394.372 152.473, 392 158.010, 392 167.500 C 392 176.965, 394.376 182.534, 401.421 189.579 C 408.466 196.624, 414.035 199, 423.500 199 C 432.985 199, 438.528 196.627, 445.656 189.515 C 450.465 184.718, 452.160 182.199, 453.406 178.005 C 455.469 171.059, 455.429 163.579, 453.294 156.865 C 450.904 149.347, 441.653 140.096, 434.135 137.706 C 427.629 135.637, 419.207 135.615, 412.577 137.650 M 275 171.624 C 266.571 172.695, 254.861 175.458, 247 178.232 C 227.714 185.035, 213.986 193.835, 198.370 209.403 C 178.930 228.784, 168.062 248.871, 162.338 276 C 159.842 287.830, 159.842 314.170, 162.338 326 C 168.056 353.100, 178.910 373.170, 198.370 392.630 C 217.830 412.090, 237.900 422.944, 265 428.662 C 276.830 431.158, 303.170 431.158, 315 428.662 C 342.129 422.938, 362.216 412.070, 381.597 392.630 C 400.958 373.211, 411.944 353.186, 417.604 327 C 420.191 315.031, 420.191 286.969, 417.604 275 C 411.939 248.792, 400.931 228.737, 381.597 209.403 C 362.601 190.408, 343.457 179.716, 318 173.885 C 309.646 171.972, 283.206 170.581, 275 171.624 M 279.500 220.051 C 245.941 225.217, 219.473 248.919, 210.878 281.500 C 207.953 292.587, 207.953 309.413, 210.878 320.500 C 218.608 349.803, 241.197 372.392, 270.500 380.122 C 281.587 383.047, 298.413 383.047, 309.500 380.122 C 333.040 373.912, 352.445 358.144, 363.012 336.640 C 368.996 324.462, 371.232 314.766, 371.232 301 C 371.232 282.081, 365.404 265.389, 353.474 250.142 C 336.780 228.807, 305.438 216.057, 279.500 220.051" stroke="none" fill="#fffcec" fill-rule="evenodd"/><path d="" stroke="none" fill="#fcfcec" fill-rule="evenodd"/></svg>